<?xml version="1.0" encoding="UTF-8"?> <svg xmlns="http://www.w3.org/2000/svg" id="Calque_2" viewBox="0 0 1952.88 435.51"><defs><style>.cls-1{fill:#fff;}</style></defs><g id="Calque_1-2"><path class="cls-1" d="m512.01,420.15l2.75-3.67c2.45,3.15,7.62,5.47,13.54,5.47,8.43,0,12.94-3.54,14.01-7.97,2.97-12.35-26.57-4.76-22.57-21.41,1.59-6.62,8.11-12.35,19.56-12.35,5.08,0,10,1.48,12.99,3.99l-2.52,3.79c-3.25-2.51-7.46-3.73-11.45-3.73-8.23,0-12.78,3.66-13.86,8.17-2.97,12.35,26.54,4.89,22.6,21.28-1.59,6.62-8.23,12.28-19.74,12.28-6.75,0-12.8-2.38-15.31-5.85"></path><path class="cls-1" d="m568.38,403.11c3.15-13.12,15.53-22.89,29.16-22.89s21.26,9.71,18.1,22.89c-3.17,13.18-15.6,22.89-29.1,22.89s-21.31-9.77-18.16-22.89m42.5,0c2.58-10.74-3.55-18.65-14.36-18.65s-20.87,7.91-23.45,18.65c-2.58,10.74,3.62,18.65,14.49,18.65s20.74-7.91,23.32-18.65"></path><polygon class="cls-1" points="633.33 425.62 644.14 380.61 648.9 380.61 639.07 421.5 664.28 421.5 663.29 425.62 633.33 425.62"></polygon><path class="cls-1" d="m687.02,406.39l6.2-25.78h4.76l-6.15,25.59c-2.56,10.67,1.28,15.56,10.02,15.56s15-4.89,17.56-15.56l6.15-25.59h4.63l-6.2,25.78c-3.11,12.92-11.66,19.61-23.17,19.61s-16.91-6.68-13.8-19.61"></path><polygon class="cls-1" points="753.97 425.62 763.8 384.72 747.98 384.72 748.97 380.61 785.36 380.61 784.38 384.72 768.56 384.72 758.73 425.62 753.97 425.62"></polygon><polygon class="cls-1" points="794.55 425.62 805.37 380.61 810.13 380.61 799.31 425.62 794.55 425.62"></polygon><path class="cls-1" d="m827.8,403.11c3.15-13.12,15.53-22.89,29.16-22.89s21.26,9.71,18.1,22.89c-3.17,13.18-15.6,22.89-29.1,22.89s-21.31-9.77-18.16-22.89m42.5,0c2.58-10.74-3.55-18.65-14.36-18.65s-20.87,7.91-23.45,18.65c-2.58,10.74,3.62,18.65,14.49,18.65s20.74-7.91,23.32-18.65"></path><polygon class="cls-1" points="936.49 380.61 941.18 380.61 930.36 425.62 926.44 425.62 906.28 389.1 897.51 425.62 892.75 425.62 903.57 380.61 907.49 380.61 927.71 417.13 936.49 380.61"></polygon><path class="cls-1" d="m954.45,420.15l2.75-3.67c2.45,3.15,7.62,5.47,13.54,5.47,8.43,0,12.94-3.54,14.01-7.97,2.97-12.35-26.57-4.76-22.57-21.41,1.59-6.62,8.11-12.35,19.56-12.35,5.08,0,10,1.48,12.99,3.99l-2.52,3.79c-3.25-2.51-7.46-3.73-11.45-3.73-8.23,0-12.78,3.66-13.86,8.17-2.97,12.35,26.54,4.89,22.6,21.28-1.59,6.62-8.23,12.28-19.74,12.28-6.75,0-12.8-2.38-15.31-5.85"></path><path class="cls-1" d="m1066.33,380.61c11.45,0,17,5.79,14.68,15.43-2.31,9.58-10.64,15.37-22.09,15.37h-12.09l-3.42,14.21h-4.76l10.82-45.01h16.84Zm-6.53,26.62c9,0,14.75-4.12,16.45-11.19,1.73-7.2-2.04-11.32-11.04-11.32h-11.96l-5.41,22.5h11.96Z"></path><polygon class="cls-1" points="1140.34 380.61 1145.03 380.61 1134.22 425.62 1129.53 425.62 1134.52 404.85 1106.36 404.85 1101.36 425.62 1096.6 425.62 1107.42 380.61 1112.18 380.61 1107.36 400.67 1135.52 400.67 1140.34 380.61"></polygon><path class="cls-1" d="m1162.72,403.11c3.16-13.12,15.53-22.89,29.17-22.89s21.26,9.71,18.09,22.89c-3.17,13.18-15.6,22.89-29.1,22.89s-21.31-9.77-18.16-22.89m42.5,0c2.58-10.74-3.55-18.65-14.35-18.65s-20.87,7.91-23.45,18.65c-2.58,10.74,3.62,18.65,14.49,18.65s20.74-7.91,23.32-18.65"></path><polygon class="cls-1" points="1235.77 425.62 1245.6 384.72 1229.78 384.72 1230.77 380.61 1267.16 380.61 1266.17 384.72 1250.35 384.72 1240.52 425.62 1235.77 425.62"></polygon><path class="cls-1" d="m1277.13,403.11c3.16-13.12,15.53-22.89,29.17-22.89s21.26,9.71,18.09,22.89c-3.17,13.18-15.6,22.89-29.1,22.89s-21.31-9.77-18.16-22.89m42.51,0c2.58-10.74-3.56-18.65-14.36-18.65s-20.87,7.91-23.45,18.65c-2.58,10.74,3.62,18.65,14.49,18.65s20.74-7.91,23.32-18.65"></path><polygon class="cls-1" points="1384.14 380.61 1388.96 380.61 1358.21 425.62 1353.52 425.62 1344.4 380.61 1349.55 380.61 1357.38 419.7 1384.14 380.61"></polygon><path class="cls-1" d="m1398.09,403.11c3.16-13.12,15.53-22.89,29.17-22.89s21.26,9.71,18.09,22.89c-3.17,13.18-15.6,22.89-29.1,22.89s-21.31-9.77-18.16-22.89m42.51,0c2.58-10.74-3.56-18.65-14.36-18.65s-20.87,7.91-23.45,18.65c-2.58,10.74,3.62,18.65,14.49,18.65s20.74-7.91,23.32-18.65"></path><polygon class="cls-1" points="1463.04 425.62 1473.86 380.61 1478.62 380.61 1468.79 421.5 1493.99 421.5 1493.01 425.62 1463.04 425.62"></polygon><polygon class="cls-1" points="1517.9 425.62 1527.73 384.72 1511.91 384.72 1512.9 380.61 1549.29 380.61 1548.3 384.72 1532.48 384.72 1522.65 425.62 1517.9 425.62"></polygon><path class="cls-1" d="m1589.85,425.62l-2.51-12.02h-25.08l-8.29,12.02h-4.95l31.39-45.01h4.69l9.76,45.01h-5.01Zm-24.93-15.88h21.6l-4.99-24.18-16.61,24.18Z"></path><path class="cls-1" d="m1621.36,372.7c.37-1.54,1.89-2.77,3.43-2.77s2.48,1.22,2.1,2.77c-.39,1.61-1.95,2.77-3.43,2.77s-2.48-1.16-2.1-2.77m-6.61,52.92l10.82-45.01h4.76l-10.82,45.01h-4.76Zm18.05-52.92c.37-1.54,1.95-2.77,3.43-2.77s2.47,1.22,2.1,2.77c-.39,1.61-1.89,2.77-3.43,2.77s-2.49-1.16-2.1-2.77"></path><path class="cls-1" d="m1691,429.41c-3.57,3.34-7.8,5.14-12.17,5.14-5.27,0-9.07-2.38-13.51-8.55-13.08-.38-20.41-10.03-17.32-22.89,3.15-13.12,15.53-22.89,29.16-22.89s21.27,9.71,18.1,22.89c-2.77,11.51-12.54,20.32-23.98,22.44,2.54,3.6,5.31,5.21,8.52,5.21,3.41,0,6.5-1.35,9.54-4.12l1.65,2.77Zm-23.82-7.65c10.8,0,20.76-7.97,23.32-18.65,2.57-10.67-3.56-18.65-14.36-18.65s-20.88,7.97-23.45,18.65c-2.57,10.67,3.62,18.65,14.48,18.65"></path><path class="cls-1" d="m1717.18,406.39l6.2-25.78h4.76l-6.15,25.59c-2.57,10.67,1.28,15.56,10.02,15.56s15-4.89,17.57-15.56l6.15-25.59h4.63l-6.2,25.78c-3.11,12.92-11.65,19.61-23.17,19.61s-16.91-6.68-13.8-19.61"></path><polygon class="cls-1" points="1782.03 421.5 1809.11 421.5 1808.12 425.62 1776.29 425.62 1787.11 380.61 1817.97 380.61 1816.98 384.72 1790.87 384.72 1787.03 400.73 1810.3 400.73 1809.33 404.78 1786.05 404.78 1782.03 421.5"></polygon><path class="cls-1" d="m1828.73,420.15l2.75-3.67c2.46,3.15,7.62,5.47,13.54,5.47,8.42,0,12.94-3.54,14-7.97,2.97-12.35-26.57-4.76-22.57-21.41,1.59-6.62,8.11-12.35,19.56-12.35,5.08,0,10,1.48,12.99,3.99l-2.52,3.79c-3.25-2.51-7.46-3.73-11.45-3.73-8.23,0-12.78,3.66-13.86,8.17-2.97,12.35,26.54,4.89,22.6,21.28-1.59,6.62-8.22,12.28-19.73,12.28-6.75,0-12.8-2.38-15.31-5.85"></path><polygon class="cls-1" points="608.7 320.18 536.03 320.18 559.6 222.13 630.95 222.13 626.25 241.68 574.16 241.68 570.3 257.73 599.78 257.73 595.08 277.28 565.61 277.28 560 300.63 613.4 300.63 608.7 320.18"></polygon><polygon class="cls-1" points="801.42 320.18 784.64 320.18 756.97 257.44 741.89 320.18 722.63 320.18 746.2 222.13 765.45 222.13 791.46 282.09 805.87 222.13 824.99 222.13 801.42 320.18"></polygon><polygon class="cls-1" points="987.72 320.18 915.06 320.18 938.63 222.13 1009.98 222.13 1005.28 241.68 953.19 241.68 949.33 257.73 978.81 257.73 974.1 277.28 944.63 277.28 939.02 300.63 992.42 300.63 987.72 320.18"></polygon><path class="cls-1" d="m1180.45,320.18h-20.57l-4.48-36.62h-25.68l-8.8,36.62h-19.26l23.57-98.05h44.21c7.1,0,12.73,1.36,16.89,4.09,4.16,2.73,7.03,6.45,8.62,11.16,1.59,4.72,1.73,9.8.42,15.25-2.71,11.29-9.47,19.99-20.28,26.12l5.36,41.44Zm-4.34-67.55c.75-3.11.23-5.71-1.55-7.81-1.78-2.09-4.48-3.14-8.07-3.14h-26.7l-5.37,22.33h26.7c3.6,0,6.79-1.05,9.58-3.14,2.79-2.09,4.59-4.84,5.41-8.24"></path><path class="cls-1" d="m1386.34,272.03c-3.72,15.47-10.2,27.65-19.44,36.55-9.24,8.9-20.18,13.35-32.83,13.35-13.52,0-22.81-4.86-27.87-14.59-5.06-9.73-5.85-21.79-2.39-36.19,3.62-15.08,10.54-27.24,20.74-36.48,10.2-9.24,21.72-13.86,34.55-13.86,7.78,0,14.43,1.87,19.95,5.62,5.52,3.75,9.19,8.93,11,15.54l-19.46,9.34c-2.51-7.39-8.13-11.09-16.89-11.09-7,0-13.25,2.8-18.72,8.39-5.48,5.59-9.35,13.11-11.62,22.54-2.31,9.63-2.08,17.24.72,22.83,2.79,5.6,7.77,8.44,14.94,8.54,8.9-.2,15.46-4.04,19.7-11.53h-17.22l4.56-18.97h40.27Z"></path><polygon class="cls-1" points="1507.09 320.18 1487.54 320.18 1511.1 222.13 1530.65 222.13 1507.09 320.18"></polygon><polygon class="cls-1" points="1696.16 320.18 1623.5 320.18 1647.06 222.13 1718.41 222.13 1713.71 241.68 1661.62 241.68 1657.76 257.73 1687.24 257.73 1682.54 277.28 1653.07 277.28 1647.46 300.63 1700.86 300.63 1696.16 320.18"></polygon><path class="cls-1" d="m1893.17,291.43c-2.43,10.12-8.03,17.73-16.8,22.83-8.77,5.11-18.79,7.66-30.07,7.66-14.76-.1-26.85-5.45-36.27-16.05l17.56-14.15c6.9,6.51,15.04,10.07,24.43,10.65,5.83,0,10.73-.95,14.69-2.85,3.96-1.9,6.34-4.5,7.13-7.8.89-3.31-.06-6.03-2.85-8.17-2.8-2.14-8.01-3.7-15.66-4.67-11.32-1.46-19.07-4.77-23.23-9.92-4.16-5.15-5.35-11.23-3.57-18.23,2.06-8.56,6.71-15.66,13.95-21.3,7.24-5.64,16.42-8.51,27.53-8.61,13.45.29,24.01,4.52,31.68,12.69l-17.2,13.86c-4.52-4.28-10.67-6.61-18.45-7-5.84,0-10.18.85-13.02,2.56-2.84,1.7-4.57,3.87-5.2,6.49-.56,2.72.24,4.77,2.39,6.13,2.15,1.36,6.08,2.33,11.77,2.92,12.07,1.17,20.85,4.6,26.35,10.29,5.49,5.69,7.1,13.26,4.83,22.69"></path><path class="cls-1" d="m1952.75,37.53c.07,3.68-.39,7.6-1.33,11.53-2.71,11.29-8.84,21.84-17.67,30.67-1.55,1.47-3.1,2.94-4.89,4.42-11.34,9.32-24.54,14.47-37.47,14.47h-50.98l-27.06-36.8L1828.15.24h87.13c12.92,0,23.66,5.15,30.51,14.48,4.69,6.38,7.05,14.47,7.08,23.3l-.12-.49Zm-48.22,20.36c2.5-2.45,4.17-5.4,4.94-8.58.3-1.23.35-2.45.35-3.43.11-2.45-.56-4.66-2-6.63-1.99-2.7-5.22-4.17-9.05-4.17h-38.54l-1.36,5.64,16.78,22.82h16.04c3.83,0,7.77-1.47,11.06-4.17.59-.49,1.19-.98,1.55-1.47h.24Z"></path><polygon class="cls-1" points="1808.87 80.46 1839.54 122.17 1828.63 167.55 1787.94 167.55 1808.87 80.46"></polygon><polygon class="cls-1" points="1803.74 .24 1763.53 167.55 1722.84 167.55 1740.57 93.76 1688.98 136.13 1657.75 93.76 1627.01 52.36 1639.54 .24 1703.32 77.44 1803.74 .24"></polygon><polygon class="cls-1" points="1622.69 71.35 1653.43 112.76 1640.26 167.55 1599.57 167.55 1622.69 71.35"></polygon><polygon class="cls-1" points="1388.69 .24 1348.48 167.55 1307.79 167.55 1322.89 104.72 1275.02 104.72 1233.61 48.95 1245.37 0 1286.06 0 1278.46 31.66 1301.78 63.08 1332.9 63.08 1348.06 0 1388.69 .24"></polygon><polygon class="cls-1" points="1229.1 67.7 1259.84 109.1 1245.85 167.31 1205.16 167.31 1229.1 67.7"></polygon><path class="cls-1" d="m1155.38,98.59h43.08l-1.93,4.03c-5.48,11.85-13.72,23.23-23.72,32.94-9.7,9.48-21.45,17.54-33.53,22.99-2.14.95-4.29,1.9-6.37,2.61-11.56,4.27-23.08,6.4-34.57,6.4-22.5,0-41.69-8.77-53.91-24.64-12.22-15.88-16.01-36.97-10.66-59.25,2.28-9.48,6.23-18.96,11.51-27.97l2.87-4.98,26.99,35.07-.29,1.19c-1.67,9.95.36,19.43,5.83,26.54,5.47,7.11,14.02,11.38,23.9,12.09,1.86.24,4.01.24,5.93.24,4.36-.24,8.9-1.19,13.31-2.61,1.55-.47,2.86-.95,4.23-1.66,4.58-2.13,9.04-4.74,13.19-8.06,5.03-4.03,9.23-8.53,12.64-13.75l1.48-1.18Z"></path><path class="cls-1" d="m1081.65,68.73l-23.53-30.57,2.19-2.13C1081.52,13.51,1110.86,0,1138.62,0c19.39,0,36.7,6.63,48.88,18.72,11.99,11.85,18.3,28.44,17.98,46.69v4.03h-43.1l-.5-1.89c-.9-5.22-2.93-9.72-6.03-13.75-6.2-8.06-15.89-12.56-27.38-12.56s-23.34,4.5-33.42,12.56c-4.15,3.32-7.69,7.11-10.81,11.14l-2.59,3.79Z"></path><path class="cls-1" d="m1000.08,116.33c-1.21,5.03-3.13,10.05-5.72,14.84-5.58,10.29-14.29,19.63-24.46,26.09-10.47,6.7-22.1,10.29-33.35,10.29h-113.22l9.78-40.69h113.22c5.74,0,11.68-4.79,13.06-10.53,1.38-5.74-2.25-10.53-8-10.53h-62c-5.03,0-9.88-.72-14.32-2.15-7.56-2.4-13.89-6.94-18.44-12.93-4.55-5.98-7.31-13.4-7.75-21.54-.29-4.79.2-9.82,1.41-14.84,1.21-5.03,3.13-10.05,5.72-14.84,4.35-8.14,10.68-15.56,18.1-21.54,7.42-5.98,15.94-10.53,24.65-12.92,1.31-.48,2.57-.72,3.82-.96l1.79-.48,30.37,39.97h-30.4c-5.74,0-11.68,4.79-13.06,10.53-1.38,5.74,2.25,10.53,8,10.53h62s52.13-3.76,38.8,51.7"></path><polygon class="cls-1" points="1029.42 .24 1019.64 40.93 955.49 40.93 924.58 .24 1029.42 .24"></polygon><polygon class="cls-1" points="790.85 39.75 821.58 81.21 800.83 167.55 760.14 167.55 790.85 39.75"></polygon><polygon class="cls-1" points="841.1 0 826.15 62.19 795.43 20.73 800.41 0 841.1 0"></polygon><polygon class="cls-1" points="1575.63 167.55 1528 167.55 1522.09 151.28 1481.34 39.01 1514.41 0 1575.63 167.55"></polygon><polygon class="cls-1" points="1470.63 51.7 1484.9 90.96 1420.11 167.31 1372.47 167.31 1470.63 51.7"></polygon><path class="cls-1" d="m753.99,36.77c6,13.88,7.1,30.2,3,47.25-4.04,16.8-12.99,33.12-25.66,47-.3.24-.6.48-.89.73-20.71,22.4-49.06,35.8-75.86,35.8h-81.86l24.29-101.07,30.92,41.65-4.27,17.78h43.8c12.62-.73,25.45-7.31,35.15-17.78l.06-.24c6.25-7.06,10.63-15.35,12.68-23.87,2.05-8.52,1.64-16.8-1.44-23.87-4.97-11.2-15.77-18.02-29.18-18.02h-40.93l-11.35,47.25-30.92-41.65L612.93.24h81.86c26.81,0,48.72,13.4,58.65,35.8l.54.73Z"></path><polygon class="cls-1" points="349.38 300.65 329.15 316.97 300.65 435.51 435.51 435.51 467.93 300.65 349.38 300.65"></polygon><polygon class="cls-1" points="152.23 300.65 32.41 300.65 0 435.51 134.86 435.51 163.66 315.7 152.23 300.65"></polygon><polygon class="cls-1" points="303 300.65 198.61 300.65 178.93 316.52 150.33 435.51 285.19 435.51 314.09 315.26 303 300.65"></polygon><polygon class="cls-1" points="405.33 0 376.93 118.14 389.63 134.86 507.78 134.86 540.19 0 405.33 0"></polygon><polygon class="cls-1" points="385 150.33 365.4 166.13 340.68 268.98 352.99 285.19 471.65 285.19 504.06 150.33 385 150.33"></polygon><polygon class="cls-1" points="188.87 150.33 68.55 150.33 36.13 285.19 156.05 285.19 174.58 270.25 199.91 164.87 188.87 150.33"></polygon><polygon class="cls-1" points="210.84 119.41 239.54 0 104.68 0 72.26 134.86 191.67 134.86 210.84 119.41"></polygon><polygon class="cls-1" points="339.64 150.33 234.23 150.33 215.18 165.69 190.25 269.42 202.22 285.19 306.82 285.19 324.8 270.69 350.35 164.42 339.64 150.33"></polygon><polygon class="cls-1" points="255 0 226.5 118.59 238.86 134.86 342.44 134.86 361.05 119.85 389.86 0 255 0"></polygon></g></svg> 