<?xml version="1.0" encoding="UTF-8"?>
<svg xmlns="http://www.w3.org/2000/svg" id="uuid-dad34868-f093-4716-abf1-29a9be902b4a" data-name="Calque 1" viewBox="0 0 208.15 34.99">
  <g>
    <g id="uuid-4838127b-b8cc-4537-9976-83754dcc4b8d" data-name="oCKoeM.tif">
      <g>
        <path d="M12.34,16.18s2.35-.09,5.88,3.41c.11.12.49.54.82.72.17.09.34.16.52.19.51.09.93-.12,1.33-.41.27-.2.49-.45.69-.71.13-.16.2-.35.29-.53.18-.36.31-.74.42-1.13.07-.27.12-.54.16-.82.08-.53.08-1.06.02-1.59-.07-.7-.26-1.38-.55-2.02-.25-.55-.57-1.06-.95-1.52-.58-.69-1.27-1.25-2.08-1.66-.4-.2-.81-.37-1.24-.48-.45-.12-.91-.2-1.38-.22-.39-.01-.78-.01-1.17.03-.44.05-.86.15-1.28.29-.35.12-.68.26-1,.43-.37.19-.71.42-1.03.68-.54.43-1,.93-1.38,1.5-.24.36-.45.75-.62,1.15-.11.27-.2.54-.28.83-.07.27-.13,1.22-.16,1.5" fill="#dc5b12"></path>
        <path d="M15.73,2.43s.04.04.06.05c.25.11.39.3.39.58v3.97c0,.26-.11.46-.33.6-.3.19-.75.06-.9-.26-.05-.1-.07-.2-.07-.31v-3.97c0-.29.14-.49.4-.61.02,0,.05-.02.05-.05h.4Z" fill="#f08321"></path>
        <path d="M24.95,6.31c.22,0,.42.13.54.36.13.26.1.52-.1.73-.41.43-.84.84-1.25,1.26l-1.49,1.49c-.1.1-.2.18-.34.24-.39.15-.88-.17-.86-.64,0-.16.06-.3.17-.41.38-.38.75-.76,1.13-1.14.55-.55,1.1-1.1,1.66-1.66.14-.14.3-.23.55-.23h0Z" fill="#f08321"></path>
        <path d="M5.52,6.91c.02-.22.13-.42.36-.53.26-.13.52-.09.73.1.33.31.64.63.96.95.6.6,1.2,1.2,1.8,1.8.11.11.19.22.24.37.1.31-.1.68-.4.78-.29.1-.52.02-.72-.18-.91-.91-1.82-1.82-2.74-2.74-.14-.14-.24-.31-.23-.56h0Z" fill="#f08321"></path>
        <path d="M25.56,25.69c-.01.26-.13.46-.36.58-.26.13-.52.1-.73-.1-.36-.34-.71-.7-1.06-1.05l-1.74-1.74c-.13-.13-.22-.29-.23-.48,0-.27.12-.48.37-.61.24-.12.52-.09.72.09.3.29.59.58.88.87.62.62,1.24,1.24,1.87,1.86.1.1.2.2.25.34.03.07.04.15.04.22v.02Z" fill="#f08321"></path>
        <path d="M26.78,16.97h-1.94c-.21,0-.4-.06-.53-.23-.17-.21-.22-.44-.1-.69.11-.23.29-.36.54-.38h3.93c.18,0,.35.03.5.14.37.29.3.9-.12,1.1-.12.06-.24.06-.37.06-.64,0-1.28,0-1.91,0Z" fill="#f08321"></path>
      </g>
      <g id="uuid-f19400b8-13d3-48cc-9127-a2fb4ba377ff" data-name="oCKoeM.tif-2">
        <path d="M12.34,16.18c2.34.54,5.01,3.72,5.01,3.72.42.56.79,1.14,1.07,1.78.33.76.52,1.54.48,2.37-.04.83-.29,1.6-.74,2.3-.54.83-1.25,1.48-2.12,1.94-.34.18-.7.33-1.09.36h-.14s.02.05.04.06c.97.66,1.96,1.29,3.03,1.79.55.26,1.12.47,1.71.58.32.06.65.09.97.09.14,0,.28.02.41.09.35.19.42.66.14.98-.14.16-.31.26-.52.29-.04,0-.08,0-.11.04h-.17c-.05-.06-.12-.05-.18-.06-.48-.13-.93-.33-1.37-.55-.93-.46-1.81-1-2.68-1.56-1.02-.66-1.99-1.38-2.88-2.19-1.44-1.32-2.72-2.78-3.82-4.4-.95-1.39-1.76-2.86-2.41-4.42-.02-.04-.02-.09-.08-.1,1.24,5.13,3.19,7.82,6.39,10.79-.02.03-.04.06-.06.09-.32.47-.74.82-1.24,1.09-.48.25-.99.4-1.52.51-.61.12-1.21.1-1.8-.06-.64-.17-1.22-.47-1.74-.88-.85-.67-1.47-1.53-1.94-2.49-.31-.63-.53-1.29-.71-1.98-.13-.51-.23-1.03-.3-1.56-.07-.55-.12-1.1-.14-1.65,0-.05,0-.1-.02-.16v-1.01c0-.06,0-.12.02-.17.02-.76.09-1.52.18-2.27.09-.69.2-1.38.33-2.07.12-.63.26-1.25.41-1.87.15-.6.31-1.2.48-1.79.07-.24.14-.47.21-.71,0-.03,0-.06.04-.07.03,0,.04.03.05.05.39.52.88.92,1.44,1.23.58.33,1.19.57,1.82.78,0,0,2.13.76,3.53,1.08h.02Z" fill="#dc5b12"></path>
      </g>
    </g>
    <g>
      <path d="M50.3,20c0,1.07-.21,2.08-.63,3.03-.42.96-.99,1.79-1.7,2.51-.71.72-1.55,1.29-2.5,1.7-.96.41-1.97.62-3.03.62s-2.1-.21-3.06-.62c-.96-.41-1.79-.97-2.51-1.69-.72-.71-1.29-1.55-1.7-2.5s-.62-1.98-.62-3.06.21-2.1.62-3.06c.41-.95.98-1.79,1.7-2.5s1.56-1.28,2.51-1.7c.95-.42,1.97-.63,3.06-.63s2.08.21,3.03.63c.95.42,1.79.99,2.5,1.7s1.28,1.55,1.7,2.51c.42.96.63,1.98.63,3.05h0ZM47.24,20c0-.65-.13-1.27-.38-1.86-.25-.59-.59-1.11-1.03-1.55-.44-.45-.95-.8-1.53-1.06-.58-.26-1.21-.39-1.87-.39s-1.29.13-1.88.39-1.1.61-1.54,1.04c-.44.44-.79.95-1.04,1.54s-.39,1.22-.39,1.88.13,1.29.39,1.87.61,1.09,1.04,1.53c.44.44.95.79,1.54,1.04.59.26,1.22.39,1.88.39s1.26-.13,1.84-.39,1.09-.61,1.53-1.06.78-.96,1.04-1.54c.26-.58.39-1.2.39-1.85v.02Z" fill="#313e51"></path>
      <path d="M67.43,27.6h-4.59l-7.14-6.09h-.46v6.09h-3.06v-15.25h11.65c.42,0,.82.08,1.19.24s.7.38.98.65c.28.28.51.6.67.97s.24.77.24,1.19v3.06c0,2.02-1.03,3.03-3.08,3.03h-3.71l7.31,6.09v.02ZM63.84,18.59v-3.18h-8.6v3.18h8.6Z" fill="#313e51"></path>
      <path d="M71.99,27.6h-3.03v-15.25h3.03v15.25Z" fill="#313e51"></path>
      <path d="M89.65,20c0,1.07-.21,2.08-.63,3.03-.42.96-.99,1.79-1.7,2.51-.71.72-1.55,1.29-2.5,1.7-.96.41-1.97.62-3.03.62s-2.1-.21-3.06-.62c-.96-.41-1.79-.97-2.51-1.69-.72-.71-1.29-1.55-1.7-2.5s-.62-1.98-.62-3.06.21-2.1.62-3.06c.41-.95.98-1.79,1.7-2.5.72-.71,1.56-1.28,2.51-1.7.95-.42,1.97-.63,3.06-.63s2.08.21,3.03.63,1.79.99,2.5,1.7,1.28,1.55,1.7,2.51.63,1.98.63,3.05h0ZM86.59,20c0-.65-.13-1.27-.38-1.86-.25-.59-.59-1.11-1.03-1.55-.44-.45-.95-.8-1.53-1.06-.58-.26-1.21-.39-1.87-.39s-1.29.13-1.88.39-1.1.61-1.54,1.04-.79.95-1.04,1.54c-.26.59-.39,1.22-.39,1.88s.13,1.29.39,1.87c.26.58.61,1.09,1.04,1.53.44.44.95.79,1.54,1.04.59.26,1.22.39,1.88.39s1.26-.13,1.84-.39c.58-.26,1.09-.61,1.53-1.06.44-.45.79-.96,1.04-1.54.26-.58.39-1.2.39-1.85v.02Z" fill="#313e51"></path>
      <path d="M105.97,27.6h-3.06v-12.19h-8.35v12.19h-3.03v-15.25h11.39c2.04,0,3.06,1.02,3.06,3.06v12.19h-.01Z" fill="#313e51"></path>
    </g>
  </g>
  <g id="uuid-57c43818-5541-4f44-b0e8-f07136787705" data-name="oCKoeM.tif-3">
    <path d="M5.5,13.03s-.18.55-.25.78c-.18.59-.34,1.19-.48,1.79-.15.62-.29,1.24-.41,1.87-.13.69-.24,1.38-.33,2.07-.09.75-.16,1.51-.18,2.27,0,.06,0,.12-.02.17,0,.35,0,.69,0,1.02,0,.05.02.1.02.16.02.55.06,1.1.14,1.65.07.53.17,1.05.3,1.56.17.68.4,1.34.71,1.98.47.97,1.09,1.82,1.94,2.49.52.41,1.1.71,1.74.88.59.16,1.19.18,1.8.06.53-.11,1.04-.26,1.52-.51.5-.26.92-.61,1.24-1.09.02-.03.04-.06.06-.09-2.17-5.29-7.49-3.65-8.63-7.88-1.14-4.23.85-9.18.85-9.18h-.02Z" fill="#f08321"></path>
  </g>
  <path d="M9.85,18.06s-2.1-9.11,8.37,1.52c.11.12.49.54.82.72.17.09.34.16.52.19.51.09.93-.12,1.33-.41.27-.2.49-.45.69-.71.13-.16.2-.35.29-.53.18-.36.31-.74.42-1.13.07-.27.12-.54.16-.82.08-.53.08-1.06.02-1.59-.07-.7-.26-1.38-.55-2.02-.25-.55-.57-1.06-.95-1.52-.58-.69-1.27-1.25-2.08-1.66-.4-.2-.81-.37-1.24-.48-.45-.12-.91-.2-1.38-.22-.39-.01-.78-.01-1.17.03-.44.05-.86.15-1.28.29-.35.12-.68.26-1,.43-.37.19-.71.42-1.03.68-.54.43-1,.93-1.38,1.5-.24.36-.45.75-.62,1.15-.11.27-.2.54-.28.83-.07.27-.55,1.86.34,3.75" fill="#f08321"></path>
  <g>
    <path d="M123.53,27.65h-1.54v-15.93l8.42,11.96v-11.02h1.54v15.91l-8.42-11.96v11.04Z" fill="#f08321"></path>
    <path d="M135.25,27.65v-14.98h8.9v1.43h-7.36v5.33h7.14v1.45h-7.14v5.33h7.36v1.43h-8.9Z" fill="#f08321"></path>
    <path d="M155.62,20.45c-.82.76-1.81,1.18-2.97,1.25l4.61,5.94h-2.07l-4.39-5.93h-1.8v5.93h-1.54v-14.98h4.8c1.33,0,2.45.42,3.36,1.27.93.87,1.4,1.95,1.4,3.25s-.47,2.4-1.4,3.27ZM152.48,20.24c.87,0,1.58-.29,2.14-.88.57-.6.86-1.34.86-2.22s-.27-1.59-.82-2.16c-.54-.57-1.27-.85-2.18-.85h-3.48v6.1h3.48Z" fill="#f08321"></path>
    <path d="M174.07,21.56c-.32,1.82-1.21,3.32-2.67,4.5-1.46,1.17-3.09,1.76-4.91,1.76-1.06,0-2.06-.2-3-.61-.94-.4-1.76-.96-2.46-1.65s-1.25-1.52-1.65-2.46c-.4-.94-.61-1.94-.61-3.01s.2-2.07.61-3.01c.4-.94.96-1.76,1.65-2.46.7-.7,1.52-1.25,2.46-1.65.94-.4,1.89-.61,2.84-.61,1.79,0,3.38.51,4.75,1.53,1.37,1.02,2.31,2.35,2.81,4h-1.63c-.47-1.21-1.23-2.18-2.28-2.9s-2.21-1.08-3.49-1.08c-1.7,0-3.16.6-4.36,1.81-1.21,1.2-1.81,2.66-1.81,4.36s.6,3.15,1.8,4.37,2.66,1.82,4.37,1.82c1.36,0,2.59-.39,3.69-1.17,1.1-.78,1.88-1.82,2.32-3.12h-6.08v-1.34h7.8l-.15.93Z" fill="#f08321"></path>
    <path d="M176.87,27.65v-14.98h1.54v14.98h-1.54Z" fill="#f08321"></path>
    <path d="M181.71,27.65v-14.98h8.9v1.43h-7.36v5.33h7.14v1.45h-7.14v5.33h7.36v1.43h-8.9Z" fill="#f08321"></path>
    <path d="M193.5,16.65c0-1.41.49-2.46,1.48-3.16.98-.7,2.14-1.05,3.47-1.05,2.91,0,4.64,1.09,5.19,3.26h-1.67c-.3-1.29-1.47-1.94-3.52-1.94-1.45,0-2.46.43-3.03,1.29-.22.32-.33.72-.32,1.21,0,.92.5,1.63,1.5,2.13.47.25,1.47.57,3,.97,1.53.39,2.63.84,3.32,1.32.96.67,1.44,1.62,1.44,2.85,0,1.51-.6,2.64-1.79,3.42-1,.65-2.23.98-3.7.98-3.32,0-5.24-1.26-5.77-3.79h1.82c.28,1.59,1.6,2.38,3.95,2.38,1.68,0,2.85-.47,3.51-1.4.26-.36.39-.85.39-1.48s-.24-1.13-.72-1.52c-.69-.56-2.01-1.08-3.95-1.55-3.06-.71-4.58-2.02-4.58-3.93Z" fill="#f08321"></path>
    <line x1="111.64" y1="13.38" x2="119" y2="13.38" fill="none" stroke="#f08321" stroke-miterlimit="10" stroke-width="1.3"></line>
    <line x1="111.64" y1="20.17" x2="119" y2="20.17" fill="none" stroke="#f08321" stroke-miterlimit="10" stroke-width="1.3"></line>
    <line x1="111.64" y1="26.92" x2="119" y2="26.92" fill="none" stroke="#f08321" stroke-miterlimit="10" stroke-width="1.3"></line>
  </g>
</svg>
